<svg width="26" height="26" viewBox="0 0 26 26" fill="none" xmlns="http://www.w3.org/2000/svg">
<g id="Attach">
<path id="Shape" d="M19.5753 14.9462L14.665 19.8565C12.3118 22.2097 8.4966 22.2097 6.14343 19.8565C3.79026 17.5033 3.79026 13.6881 6.14343 11.3349L12.7531 4.72525C14.3231 3.15527 16.8685 3.15527 18.4385 4.72525C20.0084 6.29522 20.0084 8.84065 18.4385 10.4106L11.6206 17.2285C10.8829 17.9662 9.68701 17.9662 8.94938 17.2285C8.21175 16.4909 8.21175 15.295 8.94938 14.5573L14.0679 9.43879C14.3279 9.17885 14.3279 8.75741 14.0679 8.49747C13.808 8.23753 13.3865 8.23753 13.1266 8.49747L8.00806 13.616C6.75056 14.8735 6.75056 16.9123 8.00806 18.1698C9.26557 19.4273 11.3044 19.4273 12.5619 18.1698L19.3798 11.3519C21.4696 9.26209 21.4696 5.87378 19.3798 3.78393C17.2899 1.69408 13.9016 1.69408 11.8118 3.78393L5.20211 10.3936C2.32906 13.2666 2.32906 17.9248 5.20211 20.7978C8.07515 23.6709 12.7333 23.6709 15.6063 20.7978L20.5166 15.8875C20.7766 15.6276 20.7766 15.2061 20.5166 14.9462C20.2567 14.6862 19.8353 14.6862 19.5753 14.9462Z" fill="#858E99"/>
</g>
</svg>
