<svg width="46" height="46" viewBox="0 0 46 46" fill="none" xmlns="http://www.w3.org/2000/svg">
<circle cx="23" cy="23" r="23" fill="#F3FBFD"/>
<rect x="8" y="2" width="28" height="42" rx="5" fill="white" stroke="#32373C" stroke-width="2"/>
<rect x="13" y="14" width="18" height="18" rx="9" fill="#619EFF"/>
<rect x="11" y="11" width="6" height="2" fill="#D3DBE6"/>
<rect x="13" y="11" width="6" height="2" transform="rotate(90 13 11)" fill="#D3DBE6"/>
<rect width="6" height="2" transform="matrix(-1 0 0 1 33 11)" fill="#D3DBE6"/>
<rect width="6" height="2" transform="matrix(4.37114e-08 1 1 -4.37114e-08 31 11)" fill="#D3DBE6"/>
<rect width="6" height="2" transform="matrix(1 0 0 -1 11 35)" fill="#D3DBE6"/>
<rect width="6" height="2" transform="matrix(-4.37114e-08 -1 -1 4.37114e-08 13 35)" fill="#D3DBE6"/>
<rect x="33" y="35" width="6" height="2" transform="rotate(180 33 35)" fill="#D3DBE6"/>
<rect x="31" y="35" width="6" height="2" transform="rotate(-90 31 35)" fill="#D3DBE6"/>
<rect x="25.6523" y="18.9512" width="1.68293" height="10.0976" rx="0.841463" transform="rotate(45 25.6523 18.9512)" fill="white"/>
<rect x="26.8423" y="26.0912" width="1.68293" height="10.0976" rx="0.841463" transform="rotate(135 26.8423 26.0912)" fill="white"/>
<path d="M15 3H29V4C29 5.10457 28.1046 6 27 6H17C15.8954 6 15 5.10457 15 4V3Z" fill="#32373C"/>
</svg>
