<svg width="101" height="99" viewBox="0 0 101 99" fill="none" xmlns="http://www.w3.org/2000/svg">
<path d="M46.3586 91.8766L91.9864 62.9693C94.2095 61.5522 95.7592 59.3461 96.297 56.8332C96.8348 54.3202 96.317 51.7046 94.8567 49.5578L75.8799 21.8329C74.4069 19.6941 72.114 18.2032 69.502 17.6857C66.89 17.1683 64.1713 17.6665 61.9399 19.0715L55.9363 22.8751L48.0293 11.323L41.6859 31.5183C41.5887 31.8287 41.3812 32.0964 41.0997 32.2747L16.3121 47.9787C14.0891 49.3959 12.5393 51.6019 12.0015 54.1149C11.4637 56.6278 11.9815 59.2434 13.4419 61.3902L32.4186 89.1152C33.8916 91.2539 36.1846 92.7449 38.7965 93.2623C41.4085 93.7797 44.1272 93.2816 46.3586 91.8766Z" stroke="#DBDBDB" stroke-width="5.75077" stroke-linejoin="round"/>
<path d="M65.3952 41.7246C62.7427 43.4051 62.0083 46.8362 63.7551 49.3883C65.5019 51.9403 69.0682 52.6467 71.7208 50.9662C74.3734 49.2857 75.1077 45.8545 73.361 43.3025C71.6142 40.7505 68.0478 40.044 65.3952 41.7246Z" fill="#DBDBDB"/>
<path d="M50.9865 50.8532C48.3339 52.5338 47.5996 55.9649 49.3463 58.5169C51.0931 61.0689 54.6595 61.7754 57.3121 60.0949C59.9646 58.4143 60.699 54.9832 58.9522 52.4312C57.2054 49.8792 53.6391 49.1727 50.9865 50.8532Z" fill="#DBDBDB"/>
<path d="M36.5777 59.9819C33.9251 61.6624 33.1908 65.0936 34.9375 67.6456C36.6843 70.1976 40.2507 70.9041 42.9032 69.2235C45.5558 67.543 46.2901 64.1118 44.5434 61.5598C42.7966 59.0078 39.2303 58.3014 36.5777 59.9819Z" fill="#DBDBDB"/>
</svg>
