<svg width="26" height="26" viewBox="0 0 26 26" fill="none" xmlns="http://www.w3.org/2000/svg">
<g id="sad">
<path id="Vector" d="M9.34871 13.0122C10.025 13.0122 10.5733 12.464 10.5733 11.7876C10.5733 11.1113 10.025 10.563 9.34871 10.563C8.67237 10.563 8.12408 11.1113 8.12408 11.7876C8.12408 12.464 8.67237 13.0122 9.34871 13.0122Z" fill="#858E99"/>
<path id="Vector_2" d="M13.0002 14.6248C15.307 14.6248 17.2471 16.1245 17.8612 18.1713C17.8784 18.2324 17.8811 18.2967 17.869 18.3591C17.8569 18.4214 17.8303 18.4801 17.7915 18.5303C17.7526 18.5805 17.7025 18.6209 17.6452 18.6483C17.5879 18.6756 17.525 18.6892 17.4615 18.6878H8.53845C8.47517 18.6888 8.41255 18.6749 8.35557 18.6474C8.29859 18.6199 8.24882 18.5794 8.21025 18.5292C8.17167 18.4791 8.14535 18.4206 8.13338 18.3584C8.1214 18.2963 8.12411 18.2322 8.14128 18.1713C8.75024 16.1245 10.6909 14.6248 13.0002 14.6248Z" fill="#858E99"/>
<path id="Vector_3" d="M16.6613 13.0122C17.3376 13.0122 17.8859 12.464 17.8859 11.7876C17.8859 11.1113 17.3376 10.563 16.6613 10.563C15.9849 10.563 15.4366 11.1113 15.4366 11.7876C15.4366 12.464 15.9849 13.0122 16.6613 13.0122Z" fill="#858E99"/>
<path id="Vector_4" d="M12.9993 23.5618C18.8328 23.5618 23.5618 18.8328 23.5618 12.9993C23.5618 7.16576 18.8328 2.43677 12.9993 2.43677C7.16582 2.43677 2.43683 7.16576 2.43683 12.9993C2.43683 18.8328 7.16582 23.5618 12.9993 23.5618Z" stroke="#858E99" stroke-width="1.00189" stroke-miterlimit="10"/>
</g>
</svg>
