<svg width="26" height="26" viewBox="0 0 26 26" fill="none" xmlns="http://www.w3.org/2000/svg">
<g id="images">
<path id="Vector" d="M21.9395 5.68872V4.87622C21.9376 4.23033 21.6802 3.61143 21.2235 3.15472C20.7667 2.69801 20.1478 2.4406 19.502 2.43872H3.25195C2.60607 2.4406 1.98717 2.69801 1.53045 3.15472C1.07374 3.61143 0.816329 4.23033 0.814453 4.87622V17.8762C0.816329 18.5221 1.07374 19.141 1.53045 19.5977C1.98717 20.0544 2.60607 20.3119 3.25195 20.3137H4.06445" stroke="#858E99" stroke-width="1.00189" stroke-linejoin="round"/>
<path id="Vector_2" d="M22.8523 6.49951H7.21061C5.92079 6.49951 4.87518 7.54512 4.87518 8.83494V21.2266C4.87518 22.5164 5.92079 23.562 7.21061 23.562H22.8523C24.1421 23.562 25.1877 22.5164 25.1877 21.2266V8.83494C25.1877 7.54512 24.1421 6.49951 22.8523 6.49951Z" stroke="#858E99" stroke-width="1.00189" stroke-linejoin="round"/>
<path id="Vector_3" d="M18.939 12.7073C19.8026 12.7073 20.5027 12.0122 20.5027 11.1548C20.5027 10.2974 19.8026 9.60229 18.939 9.60229C18.0754 9.60229 17.3753 10.2974 17.3753 11.1548C17.3753 12.0122 18.0754 12.7073 18.939 12.7073Z" stroke="#858E99" stroke-width="1.00189" stroke-miterlimit="10"/>
<path id="Vector_4" d="M17.375 18.8994L12.9494 14.5124C12.6665 14.2329 12.2881 14.0711 11.8905 14.0597C11.493 14.0483 11.1059 14.1882 10.8075 14.451L4.87518 19.685" stroke="#858E99" stroke-width="1.00189" stroke-linecap="round" stroke-linejoin="round"/>
<path id="Vector_5" d="M13.4691 23.5625L19.4913 17.584C19.7684 17.3107 20.1369 17.1498 20.5257 17.1322C20.9145 17.1147 21.2961 17.2418 21.5967 17.489L25.1879 20.4602" stroke="#858E99" stroke-width="1.00189" stroke-linecap="round" stroke-linejoin="round"/>
</g>
</svg>
