<svg width="26" height="26" viewBox="0 0 26 26" fill="none" xmlns="http://www.w3.org/2000/svg">
<g id="mic">
<path id="Vector" d="M9.74927 22.7488H16.2502" stroke="#858E99" stroke-width="1.00189" stroke-linecap="round" stroke-linejoin="round"/>
<path id="Vector_2" d="M19.4995 10.5618V12.1868C19.4995 15.7618 16.5745 18.6868 12.9995 18.6868C9.42445 18.6868 6.49945 15.7618 6.49945 12.1868V10.5618" stroke="#858E99" stroke-width="1.00189" stroke-linecap="round" stroke-linejoin="round"/>
<path id="Vector_3" d="M13.0004 18.686V22.7515" stroke="#858E99" stroke-width="1.00189" stroke-linecap="round" stroke-linejoin="round"/>
<path id="Vector_4" d="M12.9993 3.24833C12.5719 3.24618 12.1483 3.32877 11.753 3.49134C11.3578 3.6539 10.9986 3.89321 10.6964 4.19543C10.3942 4.49766 10.1549 4.85679 9.99231 5.25207C9.82975 5.64735 9.74716 6.07093 9.74931 6.49833V12.1351C9.74931 13.9226 11.222 15.4358 12.9993 15.4358C14.7767 15.4358 16.2493 13.9632 16.2493 12.1351V6.49833C16.2493 4.67021 14.8274 3.24833 12.9993 3.24833Z" stroke="#858E99" stroke-width="1.00189" stroke-linecap="round" stroke-linejoin="round"/>
</g>
</svg>
