<svg width="11" height="12" viewBox="0 0 11 12" fill="none" xmlns="http://www.w3.org/2000/svg">
<path fill-rule="evenodd" clip-rule="evenodd" d="M0.871213 3.02875L7.761 9.704L7.76117 10.0382C7.76117 10.5904 7.31345 11.0382 6.76117 11.0382C6.49614 11.0382 6.24194 10.9329 6.05444 10.7456L3.32641 8.02054H1C0.447715 8.02054 0 7.57282 0 7.02054V4.02054C0 3.68144 0.290404 3.35085 0.871213 3.02875ZM0.146447 0.166985C0.320013 -0.00658112 0.589437 -0.0258663 0.784306 0.10913L0.853553 0.166985L10.8536 10.167C11.0488 10.3622 11.0488 10.6788 10.8536 10.8741C10.68 11.0477 10.4106 11.0669 10.2157 10.9319L10.1464 10.8741L0.146447 0.874092C-0.0488155 0.67883 -0.0488155 0.362247 0.146447 0.166985ZM7.46827 0.292893C7.65581 0.48043 7.76117 0.734783 7.76117 1L7.761 5.719L4.138 2.208L6.05406 0.292893C6.44458 -0.0976311 7.07775 -0.0976311 7.46827 0.292893Z" fill="#AEAEB2"/>
</svg>
