<svg width="19" height="17" viewBox="0 0 19 17" fill="none" xmlns="http://www.w3.org/2000/svg">
<path id="Line 13" d="M4.27203 9.67855L2.97884 13.5332C2.65976 14.4843 2.50022 14.9599 2.74736 15.1794C2.9945 15.3989 3.44789 15.1843 4.35467 14.7552L11.6252 11.3145C15.5864 9.4399 17.567 8.5026 17.4643 7.13284C17.3616 5.76309 15.2634 5.13161 11.0669 3.86864L3.36462 1.55057C2.40399 1.26146 1.92367 1.11691 1.71203 1.3708C1.50039 1.6247 1.72905 2.07114 2.18639 2.96403L4.03992 6.58278L4.03992 6.58279C4.4186 7.32211 4.60794 7.69176 4.63813 8.09451C4.66833 8.49727 4.53623 8.89103 4.27203 9.67855Z" stroke="#858E99" stroke-width="2" stroke-linecap="round" stroke-linejoin="round"/>
</svg>
