<svg width="27" height="27" viewBox="0 0 27 27" fill="none" xmlns="http://www.w3.org/2000/svg">
<path d="M4.52982 19.6742C4.59195 19.4474 4.45578 19.1321 4.32582 18.9048C4.28553 18.8369 4.24163 18.7712 4.1943 18.708C3.07967 17.0177 2.48558 15.0373 2.48565 13.0125C2.46701 7.20053 7.28645 2.48413 13.246 2.48413C18.4434 2.48413 22.7824 6.08473 23.7957 10.8643C23.9477 11.5729 24.0246 12.2956 24.025 13.0203C24.025 18.8406 19.3915 23.631 13.4319 23.631C12.4839 23.631 11.2055 23.3929 10.508 23.1977C9.81059 23.0025 9.11419 22.7436 8.93452 22.6742C8.75059 22.6036 8.55526 22.5672 8.35824 22.567C8.14339 22.5663 7.93061 22.6091 7.73277 22.6928L4.22019 23.9603C4.14343 23.9935 4.06207 24.0148 3.97891 24.0235C3.91313 24.0233 3.84804 24.0101 3.7874 23.9846C3.72677 23.959 3.6718 23.9217 3.62567 23.8748C3.57954 23.828 3.54317 23.7724 3.51866 23.7113C3.49415 23.6503 3.48199 23.585 3.48288 23.5192C3.4872 23.4615 3.49761 23.4044 3.51395 23.3489L4.52982 19.6742Z" stroke="#545458" stroke-opacity="0.7" stroke-width="1.00189" stroke-miterlimit="10" stroke-linecap="round"/>
<path d="M8.28529 14.914C9.20103 14.914 9.94339 14.1716 9.94339 13.2559C9.94339 12.3401 9.20103 11.5978 8.28529 11.5978C7.36955 11.5978 6.6272 12.3401 6.6272 13.2559C6.6272 14.1716 7.36955 14.914 8.28529 14.914Z" fill="#545458" fill-opacity="0.7"/>
<path d="M13.2557 14.914C14.1714 14.914 14.9138 14.1716 14.9138 13.2559C14.9138 12.3401 14.1714 11.5978 13.2557 11.5978C12.3399 11.5978 11.5976 12.3401 11.5976 13.2559C11.5976 14.1716 12.3399 14.914 13.2557 14.914Z" fill="#545458" fill-opacity="0.7"/>
<path d="M18.2269 14.914C19.1427 14.914 19.885 14.1716 19.885 13.2559C19.885 12.3401 19.1427 11.5978 18.2269 11.5978C17.3112 11.5978 16.5688 12.3401 16.5688 13.2559C16.5688 14.1716 17.3112 14.914 18.2269 14.914Z" fill="#545458" fill-opacity="0.7"/>
</svg>
