<svg width="27" height="27" viewBox="0 0 27 27" fill="none" xmlns="http://www.w3.org/2000/svg">
<path d="M19.0558 6.62854H23.201" stroke="#545458" stroke-opacity="0.7" stroke-width="1.00189" stroke-linecap="round" stroke-linejoin="round"/>
<path d="M3.31494 6.62854H15.7415" stroke="#545458" stroke-opacity="0.7" stroke-width="1.00189" stroke-linecap="round" stroke-linejoin="round"/>
<path d="M19.0558 19.8828H23.201" stroke="#545458" stroke-opacity="0.7" stroke-width="1.00189" stroke-linecap="round" stroke-linejoin="round"/>
<path d="M3.31494 19.8828H15.7415" stroke="#545458" stroke-opacity="0.7" stroke-width="1.00189" stroke-linecap="round" stroke-linejoin="round"/>
<path d="M10.771 13.2568H23.1976" stroke="#545458" stroke-opacity="0.7" stroke-width="1.00189" stroke-linecap="round" stroke-linejoin="round"/>
<path d="M3.31494 13.2568H7.46018" stroke="#545458" stroke-opacity="0.7" stroke-width="1.00189" stroke-linecap="round" stroke-linejoin="round"/>
<path d="M17.3978 8.28799C18.3136 8.28799 19.0559 7.54564 19.0559 6.6299C19.0559 5.71416 18.3136 4.9718 17.3978 4.9718C16.4821 4.9718 15.7397 5.71416 15.7397 6.6299C15.7397 7.54564 16.4821 8.28799 17.3978 8.28799Z" stroke="#545458" stroke-opacity="0.7" stroke-width="1.00189" stroke-linecap="round" stroke-linejoin="round"/>
<path d="M9.11549 14.9149C10.0312 14.9149 10.7736 14.1726 10.7736 13.2568C10.7736 12.3411 10.0312 11.5988 9.11549 11.5988C8.19975 11.5988 7.4574 12.3411 7.4574 13.2568C7.4574 14.1726 8.19975 14.9149 9.11549 14.9149Z" stroke="#545458" stroke-opacity="0.7" stroke-width="1.00189" stroke-linecap="round" stroke-linejoin="round"/>
<path d="M17.3978 21.5424C18.3136 21.5424 19.0559 20.8 19.0559 19.8843C19.0559 18.9686 18.3136 18.2262 17.3978 18.2262C16.4821 18.2262 15.7397 18.9686 15.7397 19.8843C15.7397 20.8 16.4821 21.5424 17.3978 21.5424Z" stroke="#545458" stroke-opacity="0.7" stroke-width="1.00189" stroke-linecap="round" stroke-linejoin="round"/>
</svg>
