<svg width="26" height="26" viewBox="0 0 26 26" fill="none" xmlns="http://www.w3.org/2000/svg">
<path fill-rule="evenodd" clip-rule="evenodd" d="M13 0C20.1797 0 26 5.8203 26 13C26 20.1797 20.1797 26 13 26C5.8203 26 0 20.1797 0 13C0 5.8203 5.8203 0 13 0ZM13 16.6399C10.0988 16.6399 7.4287 17.16 5.30932 19.2927C4.95307 19.6512 4.83067 20.2672 5.21784 20.6605C7.19857 22.6725 9.95363 23.92 13 23.92C16.0469 23.92 18.8023 22.6722 20.7833 20.6589C21.1705 20.2654 21.0478 19.6495 20.6911 19.2909C18.5717 17.16 15.9015 16.6399 13 16.6399ZM8.84003 9.35994C8.84003 7.06244 10.7026 5.19994 13 5.19994C15.2975 5.19994 17.16 7.06244 17.16 9.35994C17.16 11.6574 15.2975 13.5199 13 13.5199C10.7026 13.5199 8.84003 11.6574 8.84003 9.35994Z" fill="#545458" fill-opacity="0.65"/>
</svg>
